<svg width="32" height="32" viewBox="0 0 32 32" fill="none" xmlns="http://www.w3.org/2000/svg">
<path fill-rule="evenodd" clip-rule="evenodd" d="M19.25 11.125C18.3525 11.125 17.625 10.3975 17.625 9.5C17.625 8.60254 18.3525 7.875 19.25 7.875H27.375C28.2725 7.875 29 8.60254 29 9.5V17.625C29 18.5225 28.2725 19.25 27.375 19.25C26.4775 19.25 25.75 18.5225 25.75 17.625V13.4231L18.774 20.399C18.1394 21.0337 17.1106 21.0337 16.476 20.399L12.75 16.6731L5.77405 23.6491C5.13945 24.2837 4.11055 24.2837 3.47595 23.6491C2.84135 23.0144 2.84135 21.9856 3.47595 21.351L11.601 13.226C12.2356 12.5914 13.2644 12.5914 13.899 13.226L17.625 16.9519L23.4519 11.125H19.25Z" fill="white"/>
</svg>
