<svg width="32" height="32" viewBox="0 0 32 32" fill="none" xmlns="http://www.w3.org/2000/svg">
<path fill-rule="evenodd" clip-rule="evenodd" d="M26.6603 13.563C20.7728 7.67545 11.2272 7.67545 5.33967 13.563C4.80444 14.0982 3.93665 14.0982 3.40142 13.563C2.86619 13.0278 2.86619 12.16 3.40142 11.6248C10.3594 4.66675 21.6406 4.66675 28.5986 11.6248C29.1338 12.16 29.1338 13.0278 28.5986 13.563C28.0633 14.0982 27.1956 14.0982 26.6603 13.563ZM22.7838 17.4395C19.0372 13.6929 12.9628 13.6929 9.21615 17.4395C8.68092 17.9747 7.81314 17.9747 7.27791 17.4395C6.74268 16.9043 6.74268 16.0365 7.27791 15.5012C12.095 10.6842 19.905 10.6842 24.7221 15.5012C25.2573 16.0365 25.2573 16.9043 24.7221 17.4395C24.1869 17.9747 23.3191 17.9747 22.7838 17.4395ZM18.9074 21.316C17.3017 19.7103 14.6983 19.7103 13.0926 21.316C12.5574 21.8512 11.6896 21.8512 11.1544 21.316C10.6192 20.7808 10.6192 19.913 11.1544 19.3777C13.8305 16.7016 18.1695 16.7016 20.8456 19.3777C21.3808 19.913 21.3808 20.7808 20.8456 21.316C20.3104 21.8512 19.4426 21.8512 18.9074 21.316ZM14.6295 24.2234C14.6295 23.4664 15.2431 22.8528 16 22.8528H16.0137C16.7706 22.8528 17.3843 23.4664 17.3843 24.2234C17.3843 24.9803 16.7706 25.5939 16.0137 25.5939H16C15.2431 25.5939 14.6295 24.9803 14.6295 24.2234Z" fill="white"/>
</svg>
