<svg width="113" height="24" viewBox="0 0 113 24" fill="none" xmlns="http://www.w3.org/2000/svg">
<path d="M1.53083 0.0419312H7.17203V6.17104H9.18497V1.57436C9.18497 0.718213 9.57221 0.0419312 10.2055 0.0419312H22.4522C23.1874 0.0419312 23.983 0.718213 23.983 1.57436V4.6392C23.983 5.25336 23.1874 6.17104 22.4522 6.17104H9.18497V7.70405H15.8186V22.5175C15.8186 23.3736 15.3262 23.5391 14.4697 23.5391H10.4607C9.60423 23.5391 9.18497 23.1182 9.18497 22.2621V7.70405V6.17104H7.17203H1.55071C0.694276 6.17104 0 5.477 0 4.62086V1.50332C0 0.64718 0.674396 0.0419312 1.53083 0.0419312Z" fill="white"/>
<path d="M22.4508 6.17432H9.18359V1.57704C9.18359 0.722649 9.41213 -0.115905 10.5181 0.0132203C10.649 0.0285074 10.7808 0.0446221 10.9126 0.0446252L22.4508 0.0448953C23.3902 0.0448953 23.9816 0.674563 23.9816 1.57732V4.64217C23.9816 5.54493 23.3902 6.17432 22.4508 6.17432Z" fill="#3B82F6"/>
<path d="M34.4427 7.6786H29.6949C29.1968 7.6786 28.793 7.27565 28.793 6.77858V4.26332C28.793 3.76625 29.1968 3.3633 29.6949 3.3633H43.8934C44.3914 3.3633 44.7952 3.76625 44.7952 4.26332V6.77858C44.7952 7.27565 44.3914 7.6786 43.8934 7.6786H39.1455V23.5423H34.4427V7.6786Z" fill="white"/>
<path d="M49.648 7.48245C50.1461 7.48245 50.5499 7.88541 50.5499 8.38247V23.5423H46.1084V8.38247C46.1084 7.88541 46.5122 7.48245 47.0103 7.48245H49.648ZM49.746 2.08832C50.2441 2.08832 50.6479 2.49127 50.6479 2.98834V4.39209C50.6479 4.88916 50.2441 5.29211 49.746 5.29211H46.9123C46.4142 5.29211 46.0105 4.88916 46.0105 4.39209V2.98834C46.0105 2.49127 46.4142 2.08832 46.9123 2.08832H49.746Z" fill="white"/>
<path d="M57.2649 7.48245C57.763 7.48245 58.1668 7.88541 58.1668 8.38247V11.6343H58.4934C59.3751 8.62667 61.2366 7.05746 63.6859 7.05746C66.4292 7.05746 67.8008 8.82282 67.9641 11.6997H68.3233C69.1724 8.59397 70.9033 7.05746 73.4832 7.05746C76.5204 7.05746 78.0553 9.11704 78.0553 12.4843V23.5423H73.5812V13.7266C73.5812 12.1574 72.8301 11.0785 71.2299 11.0785C69.303 11.0785 68.16 12.4189 68.16 14.3477V23.5423H63.7186V13.7266C63.7186 12.1574 62.9675 11.0785 61.3672 11.0785C59.4404 11.0785 58.2647 12.4189 58.2647 14.3477V23.5423H53.8233V8.38247C53.8233 7.88541 54.2271 7.48245 54.7252 7.48245H57.2649Z" fill="white"/>
<path d="M88.3412 23.9999C83.2793 23.9999 80.3401 20.3303 80.3401 15.2304C80.3401 10.0978 83.4099 7.05746 88.3412 7.05746C93.1745 7.05746 96.277 10.0978 96.277 15.2304C96.277 20.3303 93.2725 23.9999 88.3412 23.9999ZM88.3085 10.7843C85.8592 10.7843 84.7815 12.4189 84.7815 15.1977C84.7815 18.0419 85.7939 19.6438 88.3085 19.6438C90.7905 19.6438 91.8356 18.0419 91.8356 15.1977C91.8356 12.4189 90.7579 10.7843 88.3085 10.7843Z" fill="white"/>
<path d="M102.105 7.48245C102.604 7.48245 103.007 7.88541 103.007 8.38247V11.6343H103.334C104.216 8.62667 106.077 7.05746 108.526 7.05746C111.498 7.05746 113.001 9.11704 113.001 12.4843V23.5423H108.559V13.7266C108.559 12.1574 107.808 11.0785 106.208 11.0785C104.281 11.0785 103.105 12.4189 103.105 14.3477V23.5423H98.6638V8.38247C98.6638 7.88541 99.0676 7.48245 99.5657 7.48245H102.105Z" fill="white"/>
</svg>
