<svg width="20" height="20" viewBox="0 0 20 20" fill="none" xmlns="http://www.w3.org/2000/svg">
<path d="M4.75 4.75C3.7835 4.75 3 5.5335 3 6.5V7.375H17V6.5C17 5.5335 16.2165 4.75 15.25 4.75H4.75Z" fill="#6F767F"/>
<path fill-rule="evenodd" clip-rule="evenodd" d="M17 9.125H3V13.5C3 14.4665 3.7835 15.25 4.75 15.25H15.25C16.2165 15.25 17 14.4665 17 13.5V9.125ZM4.75 12.625C4.75 12.1418 5.14175 11.75 5.625 11.75H6.5C6.98325 11.75 7.375 12.1418 7.375 12.625C7.375 13.1083 6.98325 13.5 6.5 13.5H5.625C5.14175 13.5 4.75 13.1083 4.75 12.625ZM9.125 11.75C8.64175 11.75 8.25 12.1418 8.25 12.625C8.25 13.1083 8.64175 13.5 9.125 13.5H10C10.4832 13.5 10.875 13.1083 10.875 12.625C10.875 12.1418 10.4832 11.75 10 11.75H9.125Z" fill="#6F767F"/>
</svg>
